<svg xmlns="http://www.w3.org/2000/svg" viewBox="0 0 1630.3 335.56"><defs><style>.cls-1{fill:#2d2d2d;}.cls-1,.cls-2,.cls-3,.cls-4,.cls-7{stroke:#2d2d2d;}.cls-1,.cls-2,.cls-3,.cls-5,.cls-7{stroke-miterlimit:10;}.cls-2,.cls-3,.cls-4,.cls-5,.cls-7{fill:none;stroke-linecap:round;}.cls-2,.cls-4{stroke-width:21.05px;}.cls-3{stroke-width:21.05px;}.cls-4{stroke-linejoin:round;}.cls-5{stroke:#2185d0;stroke-width:35.19px;}.cls-6{fill:#ff0d03;}.cls-7{stroke-width:35.18px;}</style></defs><title>neops_iconText_horizontal_dark_transparent</title><g id="Ebene_2" data-name="Ebene 2"><g id="logo_text_dark"><circle class="cls-1" cx="1426.93" cy="18.47" r="17.97"/><line class="cls-2" x1="979.38" y1="325.03" x2="979.38" y2="151.05"/><circle class="cls-3" cx="1049.53" cy="151.05" r="70.14"/><path class="cls-2" d="M399.91,151.92a70.15,70.15,0,0,1,140.29,0v69.39"/><line class="cls-2" x1="399.91" y1="221.31" x2="399.91" y2="81.78"/><path class="cls-2" d="M844.82,221.31a70.13,70.13,0,1,1,67-28"/><path class="cls-2" d="M1519.79,87.55A70.14,70.14,0,1,1,1479.54,148"/><circle class="cls-1" cx="1353.94" cy="204.1" r="17.97"/><line class="cls-2" x1="1426.93" y1="221.31" x2="1426.93" y2="81.78"/><path class="cls-4" d="M729.28,178.57A70.15,70.15,0,1,1,731,129.89L597.69,131"/><path class="cls-2" d="M1268.39,81.78h-62.74a35,35,0,0,0-31.9,37.92c1.51,17.54,14.84,31,31.9,32h44.26c19.28,1.66,33.57,19.78,31.91,39.06-1.51,17.54-14.85,30.95-31.91,32h-74.8"/><path class="cls-5" d="M122.06,85.66a73.68,73.68,0,1,1-47.27,59.82"/><circle class="cls-6" cx="148.19" cy="154.71" r="33.55"/><path class="cls-7" d="M129.49,284.54a131.21,131.21,0,1,1,125.26-52.41"/><path class="cls-3" d="M1517.17,88.85a70.15,70.15,0,1,1-37.12,53.25"/></g></g></svg>