<svg xmlns="http://www.w3.org/2000/svg" viewBox="0 0 1240.91 680.38"><defs><style>.cls-1,.cls-3,.cls-5,.cls-6,.cls-7{fill:none;stroke-linecap:round;}.cls-1{stroke:#2185d0;stroke-width:35.19px;}.cls-1,.cls-3,.cls-5,.cls-6{stroke-miterlimit:10;}.cls-2{fill:#ff0d03;}.cls-3,.cls-5,.cls-6,.cls-7{stroke:#fff;}.cls-3{stroke-width:35.18px;}.cls-4{fill:#fff;}.cls-5,.cls-7{stroke-width:21.05px;}.cls-6{stroke-width:21.05px;}.cls-7{stroke-linejoin:round;}</style></defs><title>neops_iconText_vertical_white_transparent</title><g id="Ebene_2" data-name="Ebene 2"><g id="logo_text_vertical_white"><path class="cls-1" d="M593.73,79.71a73.66,73.66,0,1,1-47.28,59.82"/><circle class="cls-2" cx="619.85" cy="148.76" r="33.55"/><path class="cls-3" d="M601.16,278.58a131.21,131.21,0,1,1,125.25-52.4"/><circle class="cls-4" cx="1037.55" cy="363.28" r="17.97"/><line class="cls-5" x1="590" y1="669.85" x2="590" y2="495.87"/><circle class="cls-6" cx="660.14" cy="495.87" r="70.14"/><path class="cls-5" d="M10.53,496.74a70.14,70.14,0,0,1,140.28,0v69.39"/><line class="cls-5" x1="10.53" y1="566.13" x2="10.53" y2="426.6"/><path class="cls-5" d="M455.43,566.13a70.14,70.14,0,1,1,67-28"/><circle class="cls-4" cx="964.55" cy="548.92" r="17.97"/><line class="cls-5" x1="1037.55" y1="566.13" x2="1037.55" y2="426.6"/><path class="cls-7" d="M339.89,523.39a70.19,70.19,0,1,1,1.69-48.68l-133.27,1.14"/><path class="cls-5" d="M879,426.6H816.27a35,35,0,0,0-31.91,37.92c1.51,17.54,14.85,30.94,31.91,32h44.26c19.28,1.66,33.57,19.77,31.9,39.06-1.51,17.54-14.84,30.94-31.9,32H785.72"/><path class="cls-6" d="M1127.78,433.67a70.15,70.15,0,1,1-37.12,53.24"/></g></g></svg>