<svg id="eIxskHwCupm1" xmlns="http://www.w3.org/2000/svg" xmlns:xlink="http://www.w3.org/1999/xlink" viewBox="0 0 1100.6 302.5" shape-rendering="geometricPrecision" text-rendering="geometricPrecision"><style><![CDATA[#eIxskHwCupm13_tr {animation: eIxskHwCupm13_tr__tr 5000ms linear infinite normal forwards}@keyframes eIxskHwCupm13_tr__tr { 0% {transform: translate(150.474678px,151.724834px) rotate(0deg)} 100% {transform: translate(150.474678px,151.724834px) rotate(360deg)}} #eIxskHwCupm17_tr {animation: eIxskHwCupm17_tr__tr 5000ms linear infinite normal forwards}@keyframes eIxskHwCupm17_tr__tr { 0% {transform: translate(151.250007px,151.240356px) rotate(0deg)} 100% {transform: translate(151.250007px,151.240356px) rotate(-360deg)}}]]></style><g id="eIxskHwCupm2"><path id="eIxskHwCupm3" d="M988.8,182L1021.1,182C1021.4,190.9,1029.2,196.8,1044.8,196.8C1061.2,196.8,1068.2,190.1,1068.2,182C1068.2,171.8,1056.4,170.4,1042.1,168.5C1021.6,165.8,991.4,162.3,991.4,129.7C991.4,102.5,1012.2,84.7,1044.2,84.7C1076.8,84.7,1096.7,103,1097.5,126.5L1065.7,126.5C1064.9,118.4,1057.3,112.8,1044.7,112.8C1030.7,112.8,1023.7,119.5,1023.7,127.4C1023.7,137.6,1035.8,139.2,1050.1,141.1C1067.9,143.5,1100.5,147,1100.5,180.2C1100.5,207.1,1078.7,224.9,1044.7,224.9C1010.7,224.9,989.6,206.8,988.8,182Z" fill="rgb(23,23,23)" stroke="none" stroke-width="1"/></g><g id="eIxskHwCupm4"><path id="eIxskHwCupm5" d="M830.1,155.9C830.1,112.5,859.5,84.5,901.7,84.8C941,84.8,972.9,116.7,972.9,156.1C972.9,156.5,972.9,156.8,972.9,157.2C972.4,202.1,938.7,224.9,906.6,224.9C887.5,224.9,871.6,216.8,862.1,202L862.1,253.2C862.1,267,850.9,278.2,837.1,278.2L830,278.2L830.1,155.9ZM940.5,156.1C941.1,132.2,925.4,115,901.9,114.6C880.4,114.3,862.8,131.7,862.2,153.2C861.5,177.2,876.9,194.6,900.5,194.9C922.1,195.3,940,177.8,940.5,156.1Z" fill="rgb(23,23,23)" stroke="none" stroke-width="1"/></g><g id="eIxskHwCupm6"><path id="eIxskHwCupm7" d="M665.8,154.8C665.8,114.4,695.4,84.8,737.5,84.8C779.6,84.8,809.2,114.4,809.2,154.8C809.2,195.2,779.6,224.8,737.5,224.8C695.4,224.8,665.8,195.2,665.8,154.8ZM776.5,156.8C777.4,132.4,761.7,114.8,737.8,114.6C716.4,114.6,698.9,131.6,698.2,153C697.4,177.3,713.4,194.8,737.2,194.9C758.4,195.1,775.7,178,776.5,156.8L776.5,156.8Z" fill="rgb(23,23,23)" stroke="none" stroke-width="1"/></g><g id="eIxskHwCupm8"><path id="eIxskHwCupm9" d="M507.4,154.8C507.4,114.4,537,84.8,579.1,84.8C621.2,84.8,650.2,114.4,650.2,154.8L650.2,154.8C650.2,161,645.1,166.1,638.9,166.1L541,166.1C545.3,185.5,560.1,195.7,579,195.7C593.3,195.7,603.8,191.7,610.5,183L644.7,183C634.7,208.3,610.5,224.8,579,224.8C537,224.8,507.4,195.2,507.4,154.8ZM616.2,140.5C611.1,122.7,596.5,113.8,579,113.8C561,113.8,546.9,123,541.8,140.5L616.2,140.5Z" fill="rgb(23,23,23)" stroke="none" stroke-width="1"/></g><g id="eIxskHwCupm10"><path id="eIxskHwCupm11" d="M354.9,152.1C354.9,107.7,381.3,84.8,420.6,84.8C459.9,84.8,486.3,107.4,486.3,152.1L486.3,196.3C486.3,210.1,475.1,221.3,461.3,221.3L454.2,221.3L454.2,152.1C454.2,126.8,440.7,114.7,420.5,114.7C400.3,114.7,387,126.8,387,152.1L387,221.3L354.9,221.3L354.9,152.1Z" fill="rgb(23,23,23)" stroke="none" stroke-width="1"/></g><g id="eIxskHwCupm12"><g id="eIxskHwCupm13_tr" transform="translate(150.474678,151.724834) rotate(0)"><path id="eIxskHwCupm13" d="M71.5,104.1C97.8,60.1,154.8,45.8,198.7,72.1C202,74.1,205.3,76.3,208.3,78.7C215.9,85,217,96.3,210.8,103.9C204.7,111.3,193.9,112.6,186.3,106.9C161.5,87.5,125.7,91.8,106.3,116.6C86.9,141.4,91.2,177.2,116,196.6C140.8,216,176.6,211.7,196,186.9C201.7,179.6,205.5,171.1,207.2,162C209,152.3,218.3,145.9,228,147.6C237.7,149.4,244.1,158.7,242.4,168.4C233.2,218.8,184.8,252.2,134.4,243C84,233.8,50.6,185.4,59.8,135C61.8,124.1,65.8,113.7,71.5,104.1Z" transform="translate(-150.474678,-151.724834)" fill="rgb(23,23,23)" stroke="none" stroke-width="1"/></g></g><g id="eIxskHwCupm14"><circle id="eIxskHwCupm15" r="34.1" transform="matrix(1 0 0 1 151.4 151.8)" fill="rgb(23,23,23)" stroke="none" stroke-width="1"/></g><g id="eIxskHwCupm16"><g id="eIxskHwCupm17_tr" transform="translate(151.250007,151.240356) rotate(0)"><path id="eIxskHwCupm17" d="M1.3,169.6C1.1,168.7,0.9,167.9,0.8,167C-7.9,83.9,52.4,9.5,135.5,0.8C218.5,-7.8,293,52.5,301.7,135.5C310.4,218.6,250.1,293,167,301.7C167,301.7,167,301.7,167,301.7C142.7,304.2,118.1,300.8,95.3,291.8C86.1,288.3,81.5,277.9,85,268.7C88.5,259.5,98.9,254.9,108.1,258.4C108.2,258.5,108.4,258.5,108.5,258.6C125.9,265.5,144.6,268.1,163.2,266.1C226.6,259.5,272.7,202.7,266,139.2C259.4,75.8,202.6,29.7,139.1,36.4C75.8,43,29.8,99.9,36.4,163.3C37.4,173.1,30.3,181.9,20.5,182.9C11.7,183.8,3.5,178.2,1.3,169.6Z" transform="translate(-151.250007,-151.240356)" fill="rgb(23,23,23)" stroke="none" stroke-width="1"/></g></g></svg>