<svg xmlns="http://www.w3.org/2000/svg" viewBox="0 0 745.7 557.76"><defs><style>.cls-1{fill:#191919;}</style></defs><g id="Layer_2" data-name="Layer 2"><g id="Layer_1-2" data-name="Layer 1"><path class="cls-1" d="M293.05,104.14A92.78,92.78,0,0,1,429.92,78.72a17.88,17.88,0,0,1-22.06,28.15A57,57,0,1,0,428.76,162a17.88,17.88,0,1,1,35.18,6.46,92.77,92.77,0,1,1-170.89-64.35Z"/><circle class="cls-1" cx="372.98" cy="151.78" r="34.1"/><path class="cls-1" d="M222.89,169.62a20.19,20.19,0,0,1-.47-2.62A151.27,151.27,0,0,1,357.1.83C440-7.85,514.58,52.55,523.27,135.51A151.25,151.25,0,0,1,388.6,301.68a151.87,151.87,0,0,1-71.68-9.9,17.88,17.88,0,0,1,13.22-33.22,115.94,115.94,0,0,0,54.73,7.55A115.48,115.48,0,1,0,258,163.28a17.88,17.88,0,0,1-35.1,6.34Z"/><path class="cls-1" d="M0,431.68c0-44.45,26.4-67.35,65.73-67.35s65.74,22.63,65.74,67.35v44.24a25.07,25.07,0,0,1-25,25H99.41V431.68c0-25.32-13.47-37.45-33.68-37.45s-33.67,12.13-33.67,37.45v69.24H0Z"/><path class="cls-1" d="M152.48,434.37c0-40.41,29.64-70,71.66-70s71.12,29.63,71.12,70h0A11.31,11.31,0,0,1,284,445.69H186.16c4.31,19.4,19.12,29.63,38,29.63,14.28,0,24.79-4,31.52-12.66h34.21c-10,25.32-34.21,41.76-65.73,41.76C182.12,504.42,152.48,474.78,152.48,434.37ZM261.32,420.1c-5.12-17.78-19.67-26.67-37.18-26.67-18,0-32.06,9.16-37.17,26.67Z"/><path class="cls-1" d="M310.89,434.37c0-40.41,29.63-70,71.66-70s71.66,29.63,71.66,70-29.64,70.05-71.66,70.05S310.89,474.78,310.89,434.37Zm110.68,2c.92-24.39-14.77-42-38.7-42.17a39.61,39.61,0,0,0-39.62,38.36c-.82,24.28,15.15,41.79,39,41.92C403.49,474.63,420.77,457.59,421.57,436.4Z"/><path class="cls-1" d="M475.22,435.45c0-43.36,29.44-71.45,71.59-71.12A71.23,71.23,0,0,1,618,436.68c-.47,44.89-34.17,67.74-66.27,67.74-19.13,0-35-8.08-44.45-22.9v51.24a25.07,25.07,0,0,1-25,25h-7.06Zm110.44.27c.61-23.9-15.12-41.14-38.61-41.48-21.45-.31-39.11,17.1-39.75,38.55-.71,24,14.75,41.36,38.29,41.72C567.2,474.84,585.11,457.32,585.66,435.72Z"/><path class="cls-1" d="M633.9,461.58h32.33c.26,8.89,8.08,14.82,23.7,14.82,16.44,0,23.44-6.73,23.44-14.82,0-10.23-11.85-11.58-26.13-13.47-20.48-2.69-50.65-6.19-50.65-38.79,0-27.21,20.74-45,52.8-45,32.6,0,52.54,18.32,53.34,41.76H710.94c-.8-8.08-8.35-13.74-21-13.74-14,0-21,6.73-21,14.55,0,10.23,12.12,11.85,26.4,13.74,17.78,2.42,50.38,5.92,50.38,39.06,0,26.94-21.82,44.72-55.77,44.72S634.71,486.37,633.9,461.58Z"/></g></g></svg>