<svg xmlns="http://www.w3.org/2000/svg" viewBox="0 0 1100.59 302.49"><defs><style>.cls-1{fill:#191919;}</style></defs><g id="Layer_2" data-name="Layer 2"><g id="Layer_1-2" data-name="Layer 1"><path class="cls-1" d="M71.47,104.14A92.78,92.78,0,0,1,208.34,78.72a17.89,17.89,0,0,1-22.07,28.15A57,57,0,1,0,207.18,162a17.88,17.88,0,1,1,35.18,6.46A92.78,92.78,0,1,1,71.47,104.14Z"/><circle class="cls-1" cx="151.4" cy="151.78" r="34.1"/><path class="cls-1" d="M1.31,169.62A17.29,17.29,0,0,1,.84,167,151.25,151.25,0,0,1,135.52.83C218.46-7.85,293,52.55,301.69,135.51A151.25,151.25,0,0,1,167,301.68a151.89,151.89,0,0,1-71.68-9.9,17.88,17.88,0,1,1,13.23-33.22,115.94,115.94,0,0,0,54.73,7.55A115.48,115.48,0,1,0,36.4,163.28a17.88,17.88,0,0,1-35.09,6.34Z"/><path class="cls-1" d="M354.89,152.11c0-44.45,26.4-67.35,65.73-67.35s65.74,22.63,65.74,67.35v44.23a25.07,25.07,0,0,1-25,25H454.3V152.11c0-25.33-13.47-37.45-33.68-37.45S387,126.78,387,152.11v69.23H354.89Z"/><path class="cls-1" d="M507.37,154.8c0-40.41,29.64-70,71.66-70s71.12,29.63,71.12,70h0a11.31,11.31,0,0,1-11.31,11.31H541.05c4.31,19.4,19.12,29.64,38,29.64,14.28,0,24.79-4,31.52-12.66h34.22c-10,25.32-34.22,41.75-65.74,41.75C537,224.84,507.37,195.21,507.37,154.8Zm108.84-14.28c-5.12-17.78-19.67-26.67-37.18-26.67-18,0-32.06,9.16-37.17,26.67Z"/><path class="cls-1" d="M665.78,154.8c0-40.41,29.63-70,71.66-70s71.66,29.63,71.66,70-29.64,70-71.66,70S665.78,195.21,665.78,154.8Zm110.68,2c.92-24.38-14.77-42-38.7-42.16A39.6,39.6,0,0,0,698.14,153c-.82,24.27,15.15,41.79,39,41.92C758.38,195.06,775.66,178,776.46,156.82Z"/><path class="cls-1" d="M830.11,155.88c0-43.36,29.44-71.45,71.59-71.12a71.23,71.23,0,0,1,71.19,72.35c-.47,44.89-34.17,67.73-66.27,67.73-19.12,0-35-8.08-44.45-22.9v51.24a25.07,25.07,0,0,1-25,25h-7.06Zm110.44.26c.61-23.9-15.12-41.14-38.61-41.48-21.45-.31-39.11,17.11-39.74,38.55-.72,24,14.74,41.36,38.28,41.72C922.09,195.27,940,177.75,940.55,156.14Z"/><path class="cls-1" d="M988.79,182h32.33c.26,8.89,8.08,14.82,23.7,14.82,16.44,0,23.44-6.74,23.44-14.82,0-10.24-11.85-11.59-26.13-13.47-20.47-2.7-50.65-6.2-50.65-38.79,0-27.21,20.75-45,52.8-45,32.6,0,52.54,18.32,53.34,41.75h-31.78c-.81-8.08-8.36-13.74-21-13.74-14,0-21,6.74-21,14.55,0,10.24,12.12,11.85,26.4,13.74,17.78,2.42,50.38,5.93,50.38,39.06,0,26.94-21.82,44.72-55.77,44.72S989.6,206.79,988.79,182Z"/></g></g></svg>